<svg width="721" height="772" viewBox="0 0 721 772" fill="none" xmlns="http://www.w3.org/2000/svg">
<rect width="720" height="771" transform="translate(0.630859 0.5)" fill="#F6F9D6"/>
<line x1="53.7383" y1="630.896" x2="661.35" y2="630.896" stroke="black" stroke-width="1.24794"/>
<path d="M403.046 630.484V488.757H314.467V630.484H403.046Z" fill="#FDDE92" stroke="black" stroke-width="1.24794"/>
<path d="M403.046 630.484V488.757H314.467V630.484H403.046Z" stroke="black" stroke-width="1.24794"/>
<path d="M366.126 430.652L425.751 443.614C427.092 443.883 428.433 443.257 429.059 442.095L456.234 381.576C457.754 378.805 461.24 377.732 464.011 379.162L465.799 380.146L437.64 451.123V451.213C436.836 452.732 435.048 453.537 433.349 453.09L360.763 434.139C361.21 431.636 363.623 430.116 366.126 430.652Z" fill="#F86464"/>
<path d="M463.116 535.775C463.116 535.775 467.944 545.877 471.609 548.112L481.531 550.436C486.18 550.972 487.699 554.369 487.699 554.369L461.507 566.526L448.903 541.943L463.116 535.775Z" fill="black"/>
<path d="M327.418 448.352C327.418 448.352 389.814 450.676 419.045 455.145C427.537 456.397 434.867 461.76 438.801 469.359L473.217 535.867L442.734 551.868L407.424 487.952L343.24 486.075L327.418 448.352Z" fill="white" stroke="black" stroke-width="1.24794" stroke-miterlimit="10" stroke-linecap="round" stroke-linejoin="round"/>
<path d="M324.915 433.245C325.72 435.927 326.971 438.519 328.67 440.754C343.241 459.258 373.545 436.642 398.306 436.821C401.703 436.821 404.742 436.91 405.458 437.983C406.709 439.86 408.139 442.453 409.033 442.363C410.017 442.274 408.408 438.698 407.514 435.927C407.514 435.927 410.553 443.436 411.715 443.078C413.056 442.542 409.659 434.05 409.659 434.05C409.659 434.05 414.039 442.81 415.201 441.469C416.363 440.128 411.536 432.262 411.536 432.262C411.536 432.262 416.006 439.234 417.526 438.519C418.688 437.983 414.844 432.619 410.911 428.507C408.586 426.004 405.547 424.306 402.239 423.68C399.021 423.054 394.373 422.697 387.669 423.144C387.669 423.144 362.639 425.915 341.81 429.312L333.765 391.946C332.782 387.387 329.295 383.632 324.736 382.56C321.161 381.755 317.138 382.113 314.456 386.314C312.579 389.264 312.311 393.019 313.294 396.326L324.915 433.245Z" fill="white" stroke="black" stroke-width="1.24794" stroke-miterlimit="10" stroke-linecap="round" stroke-linejoin="round"/>
<path d="M403.67 550.617C403.67 550.617 396.787 563.221 397.144 567.512L401.256 576.809C403.581 580.831 401.882 584.139 401.882 584.139L376.405 570.462L388.473 545.521L403.67 550.617Z" fill="black"/>
<path d="M321.07 440.486C321.07 440.486 408.227 435.302 433.347 458.991C453.549 478.031 408.943 559.915 408.943 559.915L377.208 546.506L403.043 488.758L328.847 487.775C328.847 487.775 298.722 479.193 306.41 440.397H321.07V440.486Z" fill="white" stroke="black" stroke-width="1.24794" stroke-miterlimit="10" stroke-linecap="round" stroke-linejoin="round"/>
<path d="M277.267 380.413C277.267 380.413 275.39 370.848 286.206 367.004C295.861 363.518 296.755 353.596 296.755 353.596C296.755 353.596 299.794 345.818 308.555 346.355C317.226 346.802 312.845 332.141 327.684 329.191C329.919 328.745 331.975 329.638 333.763 331.158C339.216 335.717 340.11 343.852 336.266 349.841L316.153 380.503H277.267V380.413Z" fill="black" stroke="black" stroke-width="1.24794" stroke-miterlimit="10" stroke-linecap="round" stroke-linejoin="round"/>
<path d="M333.138 388.644L342.613 364.955L334.3 353.244L313.918 383.28L333.138 388.644Z" fill="white" stroke="black" stroke-width="1.24794" stroke-miterlimit="10" stroke-linecap="round" stroke-linejoin="round"/>
<path d="M338.947 372.553L334.746 365.938L340.914 367.636L338.947 372.553Z" fill="black" stroke="black" stroke-width="1.24794" stroke-miterlimit="10" stroke-linecap="round" stroke-linejoin="round"/>
<path d="M318.298 336.884C313.203 346.718 322.053 361.467 332.512 366.831C342.971 372.284 351.374 368.708 355.307 358.339C358.972 348.684 357.005 334.203 346.546 328.839C335.998 323.475 323.394 327.051 318.298 336.884Z" fill="white" stroke="black" stroke-width="1.24794" stroke-miterlimit="10" stroke-linecap="round" stroke-linejoin="round"/>
<path d="M317.226 339.657C320.533 329.287 331.082 324.192 342.435 327.32C351.374 329.823 357.184 338.494 357.721 347.344C357.631 347.344 350.48 347.165 347.441 339.299C347.441 339.299 346.636 351.993 333.227 349.49L327.327 363.435C319.461 359.77 313.561 351.278 317.226 339.657Z" fill="black" stroke="black" stroke-width="1.24794" stroke-miterlimit="10" stroke-linecap="round" stroke-linejoin="round"/>
<path d="M344.938 361.913C344.938 361.913 342.077 361.734 341.63 358.516L344.938 361.913Z" fill="white"/>
<path d="M344.938 361.913C344.938 361.913 342.077 361.734 341.63 358.516" stroke="black" stroke-width="1.24794" stroke-miterlimit="10" stroke-linecap="round" stroke-linejoin="round"/>
<path d="M331.886 358.963C330.634 358.605 329.383 357.711 328.578 356.46C326.969 353.868 327.416 350.649 329.562 349.219C331.081 348.236 332.601 348.593 334.031 349.755" fill="white"/>
<path d="M331.886 358.963C330.634 358.605 329.383 357.711 328.578 356.46C326.969 353.868 327.416 350.649 329.562 349.219C331.081 348.236 332.601 348.593 334.031 349.755" stroke="black" stroke-width="1.24794" stroke-miterlimit="10" stroke-linecap="round" stroke-linejoin="round"/>
<path d="M333.584 355.654C333.584 355.654 332.958 353.151 330.813 353.598L333.584 355.654Z" fill="white"/>
<path d="M333.584 355.654C333.584 355.654 332.958 353.151 330.813 353.598" stroke="black" stroke-width="1.24794" stroke-miterlimit="10" stroke-linecap="round" stroke-linejoin="round"/>
<path d="M325.986 326.779C325.807 330.534 322.5 333.484 318.745 333.215C314.991 333.037 312.041 329.729 312.309 325.975C312.488 322.22 315.795 319.27 319.55 319.538C323.304 319.717 326.165 322.935 325.986 326.779Z" fill="black" stroke="black" stroke-width="1.24794" stroke-miterlimit="10" stroke-linecap="round" stroke-linejoin="round"/>
<path d="M337.875 381.311L317.673 374.07C317.673 374.07 293.447 414.207 292.643 440.936C292.643 440.936 321.159 440.399 345.652 440.131L337.875 381.311Z" fill="black"/>
<path d="M332.869 393.109H324.824" stroke="white" stroke-width="1.24794" stroke-miterlimit="10" stroke-linecap="round" stroke-linejoin="round"/>
<path d="M328.846 384.974L321.247 381.846" stroke="white" stroke-width="1.24794" stroke-miterlimit="10" stroke-linecap="round" stroke-linejoin="round"/>
<path d="M316.062 384.26V393.11" stroke="white" stroke-width="1.24794" stroke-miterlimit="10" stroke-linecap="round" stroke-linejoin="round"/>
<path d="M319.996 403.835L314.633 398.293" stroke="white" stroke-width="1.24794" stroke-miterlimit="10" stroke-linecap="round" stroke-linejoin="round"/>
<path d="M330.723 402.676L331.617 409.38" stroke="white" stroke-width="1.24794" stroke-miterlimit="10" stroke-linecap="round" stroke-linejoin="round"/>
<path d="M323.842 411.969L316.065 413.399" stroke="white" stroke-width="1.24794" stroke-miterlimit="10" stroke-linecap="round" stroke-linejoin="round"/>
<path d="M309.627 412.687L304.442 407.502" stroke="white" stroke-width="1.24794" stroke-miterlimit="10" stroke-linecap="round" stroke-linejoin="round"/>
<path d="M319.996 419.479L314.633 423.769" stroke="white" stroke-width="1.24794" stroke-miterlimit="10" stroke-linecap="round" stroke-linejoin="round"/>
<path d="M314.633 432.799H306.498" stroke="white" stroke-width="1.24794" stroke-miterlimit="10" stroke-linecap="round" stroke-linejoin="round"/>
<path d="M310.521 424.664L303.013 421.535" stroke="white" stroke-width="1.24794" stroke-miterlimit="10" stroke-linecap="round" stroke-linejoin="round"/>
<path d="M297.826 423.857V432.797" stroke="white" stroke-width="1.24794" stroke-miterlimit="10" stroke-linecap="round" stroke-linejoin="round"/>
<path d="M301.67 443.437L296.306 437.895" stroke="white" stroke-width="1.24794" stroke-miterlimit="10" stroke-linecap="round" stroke-linejoin="round"/>
<path d="M312.399 442.365L313.293 448.98" stroke="white" stroke-width="1.24794" stroke-miterlimit="10" stroke-linecap="round" stroke-linejoin="round"/>
<path d="M351.195 415.906H343.061" stroke="white" stroke-width="1.24794" stroke-miterlimit="10" stroke-linecap="round" stroke-linejoin="round"/>
<path d="M347.084 407.771L339.575 404.643" stroke="white" stroke-width="1.24794" stroke-miterlimit="10" stroke-linecap="round" stroke-linejoin="round"/>
<path d="M338.234 426.632L332.871 421.09" stroke="white" stroke-width="1.24794" stroke-miterlimit="10" stroke-linecap="round" stroke-linejoin="round"/>
<path d="M348.962 425.561L349.855 432.176" stroke="white" stroke-width="1.24794" stroke-miterlimit="10" stroke-linecap="round" stroke-linejoin="round"/>
<path d="M342.078 434.766L334.39 436.285" stroke="white" stroke-width="1.24794" stroke-miterlimit="10" stroke-linecap="round" stroke-linejoin="round"/>
<path d="M327.865 435.484L322.68 430.299" stroke="white" stroke-width="1.24794" stroke-miterlimit="10" stroke-linecap="round" stroke-linejoin="round"/>
<path d="M338.234 442.365L332.871 446.567" stroke="white" stroke-width="1.24794" stroke-miterlimit="10" stroke-linecap="round" stroke-linejoin="round"/>
<path d="M347.798 444.506C349.407 446.831 351.374 448.887 353.787 450.496C373.453 463.547 395.086 432.528 418.686 424.929C421.904 423.857 424.854 422.963 425.837 423.767C427.625 425.108 429.771 427.164 430.665 426.807C431.648 426.36 428.966 423.499 427.268 421.175C427.268 421.175 432.542 427.343 433.436 426.628C434.598 425.734 428.609 418.672 428.609 418.672C428.609 418.672 435.492 425.645 436.117 423.946C436.743 422.337 429.771 416.348 429.771 416.348C429.771 416.348 436.207 421.532 437.369 420.46C438.263 419.566 432.989 415.722 427.983 412.951C425.033 411.342 421.547 410.627 418.239 411.074C415.021 411.521 410.462 412.593 404.204 415.186C404.204 415.186 381.32 425.645 362.637 435.478L343.239 402.581C340.825 398.559 336.356 396.056 331.707 396.503C328.042 396.86 324.288 398.469 323.126 403.296C322.232 406.693 323.126 410.269 325.182 413.13L347.798 444.506Z" fill="white" stroke="black" stroke-width="1.24794" stroke-miterlimit="10" stroke-linecap="round" stroke-linejoin="round"/>
<path d="M361.92 426.624L339.482 442.446C339.482 442.446 303.725 397.393 320.263 386.576C335.817 376.296 361.92 426.624 361.92 426.624Z" fill="black" stroke="black" stroke-width="1.24794" stroke-miterlimit="10" stroke-linecap="round" stroke-linejoin="round"/>
<path d="M332.867 393.1H324.822" stroke="white" stroke-width="1.24794" stroke-miterlimit="10" stroke-linecap="round" stroke-linejoin="round"/>
<path d="M328.844 384.965L321.245 381.836" stroke="white" stroke-width="1.24794" stroke-miterlimit="10" stroke-linecap="round" stroke-linejoin="round"/>
<path d="M316.061 384.248V393.098" stroke="white" stroke-width="1.24794" stroke-miterlimit="10" stroke-linecap="round" stroke-linejoin="round"/>
<path d="M319.994 403.826L314.631 398.283" stroke="white" stroke-width="1.24794" stroke-miterlimit="10" stroke-linecap="round" stroke-linejoin="round"/>
<path d="M330.721 402.666L331.615 409.37" stroke="white" stroke-width="1.24794" stroke-miterlimit="10" stroke-linecap="round" stroke-linejoin="round"/>
<path d="M323.84 411.959L316.063 413.389" stroke="white" stroke-width="1.24794" stroke-miterlimit="10" stroke-linecap="round" stroke-linejoin="round"/>
<path d="M309.625 412.677L304.44 407.492" stroke="white" stroke-width="1.24794" stroke-miterlimit="10" stroke-linecap="round" stroke-linejoin="round"/>
<path d="M319.994 419.469L314.631 423.76" stroke="white" stroke-width="1.24794" stroke-miterlimit="10" stroke-linecap="round" stroke-linejoin="round"/>
<path d="M314.631 432.791H306.496" stroke="white" stroke-width="1.24794" stroke-miterlimit="10" stroke-linecap="round" stroke-linejoin="round"/>
<path d="M310.52 424.656L303.011 421.527" stroke="white" stroke-width="1.24794" stroke-miterlimit="10" stroke-linecap="round" stroke-linejoin="round"/>
<path d="M297.824 423.85V432.789" stroke="white" stroke-width="1.24794" stroke-miterlimit="10" stroke-linecap="round" stroke-linejoin="round"/>
<path d="M301.668 443.429L296.304 437.887" stroke="white" stroke-width="1.24794" stroke-miterlimit="10" stroke-linecap="round" stroke-linejoin="round"/>
<path d="M312.397 442.357L313.291 448.972" stroke="white" stroke-width="1.24794" stroke-miterlimit="10" stroke-linecap="round" stroke-linejoin="round"/>
<path d="M351.193 415.896H343.059" stroke="white" stroke-width="1.24794" stroke-miterlimit="10" stroke-linecap="round" stroke-linejoin="round"/>
<path d="M347.082 407.762L339.573 404.633" stroke="white" stroke-width="1.24794" stroke-miterlimit="10" stroke-linecap="round" stroke-linejoin="round"/>
<path d="M338.23 426.622L332.867 421.08" stroke="white" stroke-width="1.24794" stroke-miterlimit="10" stroke-linecap="round" stroke-linejoin="round"/>
<path d="M348.96 425.551L349.854 432.166" stroke="white" stroke-width="1.24794" stroke-miterlimit="10" stroke-linecap="round" stroke-linejoin="round"/>
<path d="M342.074 434.756L334.386 436.276" stroke="white" stroke-width="1.24794" stroke-miterlimit="10" stroke-linecap="round" stroke-linejoin="round"/>
<path d="M327.863 435.474L322.679 430.289" stroke="white" stroke-width="1.24794" stroke-miterlimit="10" stroke-linecap="round" stroke-linejoin="round"/>
<path d="M338.23 442.355L332.867 446.557" stroke="white" stroke-width="1.24794" stroke-miterlimit="10" stroke-linecap="round" stroke-linejoin="round"/>
<path d="M548.822 208.817C550.958 208.817 552.69 207.085 552.69 204.949C552.69 202.812 550.958 201.08 548.822 201.08C546.685 201.08 544.953 202.812 544.953 204.949C544.953 207.085 546.685 208.817 548.822 208.817Z" stroke="black" stroke-width="1.24794" stroke-miterlimit="10" stroke-linecap="round" stroke-linejoin="round"/>
<path d="M400.316 262.727C404.934 270.464 416.415 271.463 424.277 267.095C432.139 262.727 437.006 254.615 441.124 246.629C447.489 234.024 429.144 238.891 436.507 256.612C439.502 263.975 444.993 271.463 452.855 272.087C464.086 273.085 470.825 260.606 477.439 251.496C481.932 245.256 487.423 232.652 494.661 231.404C505.643 229.532 506.017 245.505 507.265 249.873C508.513 254.241 511.258 258.858 515.751 259.358C521.117 259.982 525.11 254.615 528.979 250.872C537.715 242.386 552.066 240.389 562.798 246.005" stroke="black" stroke-width="1.24794" stroke-miterlimit="10" stroke-linecap="round" stroke-linejoin="round"/>
<path d="M212.554 630.484V515.175H314.011V630.484H212.554Z" fill="white" stroke="black" stroke-width="1.24794" stroke-miterlimit="10" stroke-linecap="round" stroke-linejoin="round"/>
<path d="M241.754 609.954C265.714 594.105 279.317 564.029 275.448 535.701" stroke="black" stroke-width="1.24794" stroke-miterlimit="10" stroke-linecap="round" stroke-linejoin="round"/>
<path d="M266.713 547.057L275.448 535.701L284.808 546.433" stroke="black" stroke-width="1.24794" stroke-miterlimit="10" stroke-linecap="round" stroke-linejoin="round"/>
<path d="M118.995 462.697C118.995 464.818 117.248 466.565 115.126 466.565C113.005 466.565 111.258 464.818 111.258 462.697C111.258 460.575 113.005 458.828 115.126 458.828C117.248 458.828 118.995 460.575 118.995 462.697Z" stroke="black" stroke-width="1.24794" stroke-miterlimit="10" stroke-linecap="round" stroke-linejoin="round"/>
<path d="M609.936 458.829C609.936 463.072 606.566 466.442 602.323 466.442C598.08 466.442 594.711 463.072 594.711 458.829C594.711 454.586 598.08 451.217 602.323 451.217C606.566 451.217 609.936 454.586 609.936 458.829Z" stroke="black" stroke-width="1.24794" stroke-miterlimit="10" stroke-linecap="round" stroke-linejoin="round"/>
</svg>
